<svg width="131" height="107" viewBox="0 0 131 107" fill="none" xmlns="http://www.w3.org/2000/svg">
<path d="M57.4052 102.952C59.6827 107.507 54.5582 107.223 52.1858 106.748C40.4705 104.405 4.26243 86.3452 1.41551 54.5545C-1.43142 22.7638 9.95643 6.15671 15.1758 1.88632C19.3513 -1.52999 21.0278 0.462859 21.3441 1.88632C20.9645 21.2454 29.4104 26.4015 33.6808 26.5597C36.7175 54.6494 56.7725 54.3963 66.4204 50.7586C51.2368 60.2483 54.5583 97.2584 57.4052 102.952Z" fill="#9DBB47"/>
<circle cx="58.3541" cy="29.4066" r="20.403" fill="#9DBB47"/>
<path d="M73.5376 50.2841C55.3173 63.1901 57.0887 86.6615 60.252 96.7839C77.9662 98.0492 116.811 90.0461 130.476 47.9116C130.856 42.2178 128.42 43.3249 127.155 44.5902C117.665 52.9412 107.701 50.9167 103.905 48.8606C93.2763 60.2483 79.2315 54.5544 73.5376 50.2841Z" fill="#F26B35"/>
<path fill-rule="evenodd" clip-rule="evenodd" d="M75.3267 43.6681C79.1728 40.5056 81.624 35.5404 81.562 29.9834C81.5217 26.3745 80.4273 23.0389 78.5924 20.3012C81.4563 18.0305 85.0676 16.6578 89.0051 16.6138C98.4384 16.5085 106.171 24.0703 106.276 33.5036C106.382 42.9369 98.8197 50.6695 89.3864 50.7748C83.6073 50.8393 78.4665 48.0262 75.3267 43.6681Z" fill="#F26B35"/>
</svg>
